ffmpeg version 3.4.8-0ubuntu0.2 Copyright (c) 2000-2020 the FFmpeg developers
  built with gcc 7 (Ubuntu 7.5.0-3ubuntu1~18.04)
  configuration: --prefix=/usr --extra-version=0ubuntu0.2 --toolchain=hardened --libdir=/usr/lib/x86_64-linux-gnu --incdir=/usr/include/x86_64-linux-gnu --enable-gpl --disable-stripping --enable-avresample --enable-avisynth --enable-gnutls --enable-ladspa --enable-libass --enable-libbluray --enable-libbs2b --enable-libcaca --enable-libcdio --enable-libflite --enable-libfontconfig --enable-libfreetype --enable-libfribidi --enable-libgme --enable-libgsm --enable-libmp3lame --enable-libmysofa --enable-libopenjpeg --enable-libopenmpt --enable-libopus --enable-libpulse --enable-librubberband --enable-librsvg --enable-libshine --enable-libsnappy --enable-libsoxr --enable-libspeex --enable-libssh --enable-libtheora --enable-libtwolame --enable-libvorbis --enable-libvpx --enable-libwavpack --enable-libwebp --enable-libx265 --enable-libxml2 --enable-libxvid --enable-libzmq --enable-libzvbi --enable-omx --enable-openal --enable-opengl --enable-sdl2 --enable-libdc1394 --enable-libdrm --enable-libiec61883 --enable-chromaprint --enable-frei0r --enable-libopencv --enable-libx264 --enable-shared
  libavutil      55. 78.100 / 55. 78.100
  libavcodec     57.107.100 / 57.107.100
  libavformat    57. 83.100 / 57. 83.100
  libavdevice    57. 10.100 / 57. 10.100
  libavfilter     6.107.100 /  6.107.100
  libavresample   3.  7.  0 /  3.  7.  0
  libswscale      4.  8.100 /  4.  8.100
  libswresample   2.  9.100 /  2.  9.100
  libpostproc    54.  7.100 / 54.  7.100
[rawvideo @ 0x55633fed9a20] Estimating duration from bitrate, this may be inaccurate
Input #0, rawvideo, from '../../SVC-Encoder-20220109T061506Z-001/SVC-Encoder/Dataset/RollerCoaster/ERP_8x8/tile_yuv/Tile_47_480x240.yuv':
  Duration: 00:00:10.00, start: 0.000000, bitrate: 41472 kb/s
    Stream #0:0: Video: rawvideo (I420 / 0x30323449), yuv420p, 480x240, 41472 kb/s, 30 tbr, 30 tbn, 30 tbc
Stream mapping:
  Stream #0:0 -> #0:0 (rawvideo (native) -> h264 (libx264))
Press [q] to stop, [?] for help
[libx264 @ 0x55633fee6c60] using cpu capabilities: MMX2 SSE2Fast LZCNT SSSE3 SSE4.2 AVX
[libx264 @ 0x55633fee6c60] profile High, level 2.1
Output #0, rawvideo, to 'RollerCoaster_Tile_47_480x240_x264_QP_28.h264':
  Metadata:
    encoder         : Lavf57.83.100
    Stream #0:0: Video: h264 (libx264), yuv420p, 480x240, q=-1--1, 30 fps, 30 tbn, 30 tbc
    Metadata:
      encoder         : Lavc57.107.100 libx264
    Side data:
      cpb: bitrate max/min/avg: 0/0/0 buffer size: 0 vbv_delay: -1
frame=  144 fps=0.0 q=34.0 PSNR=Y:nan U:nan V:nan *:nan size=     105kB time=00:00:03.36 bitrate= 256.4kbits/s speed=6.71x    frame=  283 fps=282 q=34.0 PSNR=Y:nan U:nan V:nan *:nan size=     237kB time=00:00:08.00 bitrate= 242.9kbits/s speed=7.97x    frame=  300 fps=249 q=34.0 LPSNR=Y:inf U:inf V:inf *:inf size=     300kB time=00:00:09.93 bitrate= 247.3kbits/s speed=8.24x    
video:300kB audio:0kB subtitle:0kB other streams:0kB global headers:0kB muxing overhead: 0.000000%
[libx264 @ 0x55633fee6c60] frame I:2     Avg QP:25.66  size: 14040  PSNR Mean Y:41.63 U:46.53 V:46.58 Avg:42.74 Global:42.71
[libx264 @ 0x55633fee6c60] frame P:76    Avg QP:27.35  size:  2394  PSNR Mean Y:39.13 U:46.45 V:46.67 Avg:40.51 Global:40.46
[libx264 @ 0x55633fee6c60] frame B:222   Avg QP:33.47  size:   437  PSNR Mean Y:38.56 U:46.31 V:46.50 Avg:39.97 Global:39.94
[libx264 @ 0x55633fee6c60] consecutive B-frames:  0.7%  1.3%  2.0% 96.0%
[libx264 @ 0x55633fee6c60] mb I  I16..4: 12.2% 59.3% 28.4%
[libx264 @ 0x55633fee6c60] mb P  I16..4:  0.6%  1.3%  0.5%  P16..4: 41.5% 20.0%  9.1%  0.0%  0.0%    skip:27.0%
[libx264 @ 0x55633fee6c60] mb B  I16..4:  0.0%  0.1%  0.1%  B16..8: 39.5%  5.4%  0.6%  direct: 0.4%  skip:54.0%  L0:41.5% L1:52.8% BI: 5.7%
[libx264 @ 0x55633fee6c60] 8x8 transform intra:55.8% inter:69.0%
[libx264 @ 0x55633fee6c60] coded y,uvDC,uvAC intra: 71.0% 74.3% 31.9% inter: 9.5% 5.0% 0.0%
[libx264 @ 0x55633fee6c60] i16 v,h,dc,p: 24% 34% 21% 22%
[libx264 @ 0x55633fee6c60] i8 v,h,dc,ddl,ddr,vr,hd,vl,hu: 10% 22% 16%  8%  5%  7% 10%  8% 15%
[libx264 @ 0x55633fee6c60] i4 v,h,dc,ddl,ddr,vr,hd,vl,hu: 14% 23% 16%  6%  7%  6% 13%  7%  7%
[libx264 @ 0x55633fee6c60] i8c dc,h,v,p: 47% 20% 18% 14%
[libx264 @ 0x55633fee6c60] Weighted P-Frames: Y:0.0% UV:0.0%
[libx264 @ 0x55633fee6c60] ref P L0: 55.4% 18.8% 19.3%  6.6%
[libx264 @ 0x55633fee6c60] ref B L0: 84.3% 12.9%  2.7%
[libx264 @ 0x55633fee6c60] ref B L1: 90.0% 10.0%
[libx264 @ 0x55633fee6c60] PSNR Mean Y:38.721 U:46.349 V:46.544 Avg:40.126 Global:40.079 kb/s:245.68
